<svg width="296" height="96" viewBox="0 0 296 96" fill="none" xmlns="http://www.w3.org/2000/svg">
    <rect opacity="0.6" x="120.083" width="68.0117" height="64" rx="8" fill="#D2CDEB"/>
    <path d="M140.286 81.0469H141.605V88.0947C141.605 89.0472 141.318 89.7923 140.744 90.3301C140.174 90.8678 139.413 91.1367 138.461 91.1367C137.472 91.1367 136.702 90.8838 136.15 90.3779C135.599 89.8721 135.323 89.1634 135.323 88.252H136.635C136.635 88.8216 136.79 89.266 137.1 89.585C137.415 89.904 137.868 90.0635 138.461 90.0635C139.003 90.0635 139.441 89.8926 139.773 89.5508C140.11 89.209 140.281 88.7305 140.286 88.1152V81.0469ZM146.773 86.5635C145.648 86.2399 144.827 85.8434 144.312 85.374C143.802 84.9001 143.547 84.3167 143.547 83.624C143.547 82.8402 143.859 82.193 144.483 81.6826C145.112 81.1676 145.928 80.9102 146.93 80.9102C147.614 80.9102 148.222 81.0423 148.756 81.3066C149.293 81.571 149.708 81.9355 150 82.4004C150.296 82.8652 150.444 83.3734 150.444 83.9248H149.125C149.125 83.3232 148.933 82.8516 148.551 82.5098C148.168 82.1634 147.628 81.9902 146.93 81.9902C146.283 81.9902 145.777 82.1338 145.413 82.4209C145.053 82.7035 144.873 83.0977 144.873 83.6035C144.873 84.0091 145.044 84.3532 145.385 84.6357C145.732 84.9137 146.317 85.1689 147.142 85.4014C147.972 85.6338 148.619 85.8913 149.084 86.1738C149.553 86.4518 149.899 86.7777 150.123 87.1514C150.351 87.5251 150.465 87.9648 150.465 88.4707C150.465 89.2773 150.15 89.9245 149.521 90.4121C148.892 90.8952 148.052 91.1367 146.999 91.1367C146.315 91.1367 145.677 91.0068 145.085 90.7471C144.492 90.4827 144.034 90.1227 143.711 89.667C143.392 89.2113 143.232 88.694 143.232 88.1152H144.552C144.552 88.7168 144.773 89.193 145.215 89.5439C145.661 89.8903 146.256 90.0635 146.999 90.0635C147.691 90.0635 148.222 89.9222 148.592 89.6396C148.961 89.3571 149.145 88.972 149.145 88.4844C149.145 87.9967 148.974 87.6208 148.633 87.3564C148.291 87.0876 147.671 86.8232 146.773 86.5635ZM159.809 86.3447C159.809 87.32 159.645 88.1722 159.317 88.9014C158.989 89.626 158.524 90.1797 157.923 90.5625C157.321 90.9453 156.619 91.1367 155.817 91.1367C155.033 91.1367 154.338 90.9453 153.732 90.5625C153.126 90.1751 152.654 89.626 152.317 88.915C151.984 88.1995 151.814 87.3724 151.804 86.4336V85.7158C151.804 84.7588 151.971 83.9134 152.303 83.1797C152.636 82.446 153.106 81.8854 153.712 81.498C154.322 81.1061 155.02 80.9102 155.803 80.9102C156.601 80.9102 157.303 81.1038 157.909 81.4912C158.52 81.874 158.989 82.4323 159.317 83.166C159.645 83.8952 159.809 84.7451 159.809 85.7158V86.3447ZM158.504 85.7021C158.504 84.5218 158.267 83.6172 157.793 82.9883C157.319 82.3548 156.656 82.0381 155.803 82.0381C154.974 82.0381 154.32 82.3548 153.842 82.9883C153.368 83.6172 153.124 84.4922 153.11 85.6133V86.3447C153.11 87.4886 153.349 88.3887 153.828 89.0449C154.311 89.6966 154.974 90.0225 155.817 90.0225C156.665 90.0225 157.321 89.7148 157.786 89.0996C158.251 88.4798 158.49 87.5934 158.504 86.4404V85.7021ZM169.427 91H168.108L163.097 83.3301V91H161.778V81.0469H163.097L168.122 88.751V81.0469H169.427V91Z" fill="#7769C5"/>
    <rect opacity="0.6" x="227.304" width="68.0117" height="64" rx="32" fill="#D2CDEB"/>
    <path d="M235.918 89.6943C235.581 90.1774 235.109 90.5397 234.503 90.7812C233.902 91.0182 233.2 91.1367 232.398 91.1367C231.587 91.1367 230.866 90.9476 230.238 90.5693C229.609 90.1865 229.121 89.6442 228.775 88.9424C228.433 88.2406 228.257 87.4271 228.248 86.502V85.6338C228.248 84.1344 228.597 82.9723 229.294 82.1475C229.996 81.3226 230.98 80.9102 232.247 80.9102C233.286 80.9102 234.123 81.1768 234.756 81.71C235.39 82.2386 235.777 82.9906 235.918 83.9658H234.606C234.36 82.6488 233.576 81.9902 232.254 81.9902C231.375 81.9902 230.707 82.3001 230.251 82.9199C229.8 83.5352 229.572 84.4284 229.568 85.5996V86.4131C229.568 87.5296 229.823 88.4183 230.333 89.0791C230.844 89.7354 231.534 90.0635 232.405 90.0635C232.897 90.0635 233.327 90.0088 233.697 89.8994C234.066 89.79 234.371 89.6055 234.613 89.3457V87.1104H232.309V86.0439H235.918V89.6943ZM243.739 86.3994H239.425V89.9268H244.436V91H238.113V81.0469H244.367V82.127H239.425V85.3262H243.739V86.3994ZM253.726 86.3447C253.726 87.32 253.562 88.1722 253.234 88.9014C252.906 89.626 252.441 90.1797 251.839 90.5625C251.238 90.9453 250.536 91.1367 249.734 91.1367C248.95 91.1367 248.255 90.9453 247.649 90.5625C247.043 90.1751 246.571 89.626 246.234 88.915C245.901 88.1995 245.73 87.3724 245.721 86.4336V85.7158C245.721 84.7588 245.887 83.9134 246.22 83.1797C246.553 82.446 247.022 81.8854 247.628 81.498C248.239 81.1061 248.936 80.9102 249.72 80.9102C250.517 80.9102 251.219 81.1038 251.825 81.4912C252.436 81.874 252.906 82.4323 253.234 83.166C253.562 83.8952 253.726 84.7451 253.726 85.7158V86.3447ZM252.42 85.7021C252.42 84.5218 252.183 83.6172 251.709 82.9883C251.235 82.3548 250.572 82.0381 249.72 82.0381C248.891 82.0381 248.237 82.3548 247.758 82.9883C247.284 83.6172 247.04 84.4922 247.027 85.6133V86.3447C247.027 87.4886 247.266 88.3887 247.744 89.0449C248.227 89.6966 248.891 90.0225 249.734 90.0225C250.581 90.0225 251.238 89.7148 251.702 89.0996C252.167 88.4798 252.406 87.5934 252.42 86.4404V85.7021ZM259.865 81.0469H261.184V88.0947C261.184 89.0472 260.897 89.7923 260.323 90.3301C259.753 90.8678 258.992 91.1367 258.039 91.1367C257.05 91.1367 256.28 90.8838 255.729 90.3779C255.177 89.8721 254.902 89.1634 254.902 88.252H256.214C256.214 88.8216 256.369 89.266 256.679 89.585C256.993 89.904 257.447 90.0635 258.039 90.0635C258.582 90.0635 259.019 89.8926 259.352 89.5508C259.689 89.209 259.86 88.7305 259.865 88.1152V81.0469ZM266.352 86.5635C265.226 86.2399 264.406 85.8434 263.891 85.374C263.38 84.9001 263.125 84.3167 263.125 83.624C263.125 82.8402 263.437 82.193 264.062 81.6826C264.691 81.1676 265.506 80.9102 266.509 80.9102C267.193 80.9102 267.801 81.0423 268.334 81.3066C268.872 81.571 269.287 81.9355 269.578 82.4004C269.875 82.8652 270.023 83.3734 270.023 83.9248H268.703C268.703 83.3232 268.512 82.8516 268.129 82.5098C267.746 82.1634 267.206 81.9902 266.509 81.9902C265.862 81.9902 265.356 82.1338 264.991 82.4209C264.631 82.7035 264.451 83.0977 264.451 83.6035C264.451 84.0091 264.622 84.3532 264.964 84.6357C265.31 84.9137 265.896 85.1689 266.721 85.4014C267.55 85.6338 268.198 85.8913 268.662 86.1738C269.132 86.4518 269.478 86.7777 269.701 87.1514C269.929 87.5251 270.043 87.9648 270.043 88.4707C270.043 89.2773 269.729 89.9245 269.1 90.4121C268.471 90.8952 267.63 91.1367 266.577 91.1367C265.894 91.1367 265.256 91.0068 264.663 90.7471C264.071 90.4827 263.613 90.1227 263.289 89.667C262.97 89.2113 262.811 88.694 262.811 88.1152H264.13C264.13 88.7168 264.351 89.193 264.793 89.5439C265.24 89.8903 265.835 90.0635 266.577 90.0635C267.27 90.0635 267.801 89.9222 268.17 89.6396C268.539 89.3571 268.724 88.972 268.724 88.4844C268.724 87.9967 268.553 87.6208 268.211 87.3564C267.869 87.0876 267.25 86.8232 266.352 86.5635ZM279.388 86.3447C279.388 87.32 279.224 88.1722 278.896 88.9014C278.568 89.626 278.103 90.1797 277.501 90.5625C276.9 90.9453 276.198 91.1367 275.396 91.1367C274.612 91.1367 273.917 90.9453 273.311 90.5625C272.705 90.1751 272.233 89.626 271.896 88.915C271.563 88.1995 271.392 87.3724 271.383 86.4336V85.7158C271.383 84.7588 271.549 83.9134 271.882 83.1797C272.215 82.446 272.684 81.8854 273.29 81.498C273.901 81.1061 274.598 80.9102 275.382 80.9102C276.18 80.9102 276.881 81.1038 277.488 81.4912C278.098 81.874 278.568 82.4323 278.896 83.166C279.224 83.8952 279.388 84.7451 279.388 85.7158V86.3447ZM278.082 85.7021C278.082 84.5218 277.845 83.6172 277.371 82.9883C276.897 82.3548 276.234 82.0381 275.382 82.0381C274.553 82.0381 273.899 82.3548 273.42 82.9883C272.946 83.6172 272.702 84.4922 272.689 85.6133V86.3447C272.689 87.4886 272.928 88.3887 273.406 89.0449C273.89 89.6966 274.553 90.0225 275.396 90.0225C276.243 90.0225 276.9 89.7148 277.365 89.0996C277.829 88.4798 278.069 87.5934 278.082 86.4404V85.7021ZM289.006 91H287.687L282.676 83.3301V91H281.357V81.0469H282.676L287.7 88.751V81.0469H289.006V91Z" fill="#7769C5"/>
    <path d="M32.9185 87.8418C32.7954 88.8945 32.4058 89.708 31.7495 90.2822C31.0978 90.8519 30.2297 91.1367 29.145 91.1367C27.9692 91.1367 27.0259 90.7152 26.3149 89.8721C25.6086 89.029 25.2554 87.901 25.2554 86.4883V85.5312C25.2554 84.6061 25.4194 83.7926 25.7476 83.0908C26.0802 82.389 26.5496 81.8512 27.1558 81.4775C27.7619 81.0993 28.4637 80.9102 29.2612 80.9102C30.3185 80.9102 31.1662 81.2064 31.8042 81.7988C32.4422 82.3867 32.8136 83.2025 32.9185 84.2461H31.5991C31.4852 83.4531 31.2368 82.8789 30.854 82.5234C30.4757 82.168 29.9448 81.9902 29.2612 81.9902C28.4227 81.9902 27.7642 82.3001 27.2856 82.9199C26.8117 83.5397 26.5747 84.4215 26.5747 85.5654V86.5293C26.5747 87.6094 26.8003 88.4684 27.2515 89.1064C27.7026 89.7445 28.3338 90.0635 29.145 90.0635C29.8742 90.0635 30.4325 89.8994 30.8198 89.5713C31.2118 89.2386 31.4715 88.6621 31.5991 87.8418H32.9185ZM37.6489 86.5635C36.5233 86.2399 35.703 85.8434 35.188 85.374C34.6776 84.9001 34.4224 84.3167 34.4224 83.624C34.4224 82.8402 34.7345 82.193 35.3589 81.6826C35.9878 81.1676 36.8035 80.9102 37.8062 80.9102C38.4897 80.9102 39.0981 81.0423 39.6313 81.3066C40.1691 81.571 40.5838 81.9355 40.8755 82.4004C41.1717 82.8652 41.3198 83.3734 41.3198 83.9248H40.0005C40.0005 83.3232 39.8091 82.8516 39.4263 82.5098C39.0435 82.1634 38.5034 81.9902 37.8062 81.9902C37.159 81.9902 36.6532 82.1338 36.2886 82.4209C35.9285 82.7035 35.7485 83.0977 35.7485 83.6035C35.7485 84.0091 35.9194 84.3532 36.2612 84.6357C36.6076 84.9137 37.1932 85.1689 38.0181 85.4014C38.8475 85.6338 39.4946 85.8913 39.9595 86.1738C40.4289 86.4518 40.7752 86.7777 40.9985 87.1514C41.2264 87.5251 41.3403 87.9648 41.3403 88.4707C41.3403 89.2773 41.0259 89.9245 40.397 90.4121C39.7681 90.8952 38.9272 91.1367 37.8745 91.1367C37.1909 91.1367 36.5529 91.0068 35.9604 90.7471C35.368 90.4827 34.91 90.1227 34.5864 89.667C34.2674 89.2113 34.1079 88.694 34.1079 88.1152H35.4272C35.4272 88.7168 35.6483 89.193 36.0903 89.5439C36.5369 89.8903 37.1317 90.0635 37.8745 90.0635C38.5672 90.0635 39.0981 89.9222 39.4673 89.6396C39.8364 89.3571 40.021 88.972 40.021 88.4844C40.021 87.9967 39.8501 87.6208 39.5083 87.3564C39.1665 87.0876 38.5467 86.8232 37.6489 86.5635ZM46.3237 89.2568L49.1675 81.0469H50.603L46.9116 91H45.7495L42.0649 81.0469H43.4937L46.3237 89.2568Z" fill="#7769C5"/>
    <path opacity="0.6" d="M35.999 1.54346C37.3602 0.612843 39.153 0.612843 40.5141 1.54346L72.1212 23.1528C73.6091 24.17 74.2329 26.0567 73.6446 27.7604L61.6736 62.4301C61.1168 64.0427 59.5986 65.1246 57.8926 65.1246H18.6205C16.9146 65.1246 15.3963 64.0427 14.8396 62.4301L2.86855 27.7604C2.2803 26.0567 2.90409 24.17 4.39195 23.1528L35.999 1.54346Z" fill="#D2CDEB"/>
    <path d="M171.827 24.3828C171.36 16.3894 164.788 10 156.863 10C152.053 10 147.395 12.3652 144.508 16.2242C144.443 16.1896 144.373 16.1665 144.306 16.1336C144.131 16.0484 143.953 15.9666 143.77 15.8947C143.669 15.8547 143.567 15.8183 143.464 15.7819C143.285 15.7188 143.104 15.6638 142.919 15.6132C142.816 15.5856 142.714 15.5572 142.61 15.5332C142.411 15.4879 142.209 15.4533 142.005 15.4231C141.914 15.4098 141.826 15.392 141.735 15.3813C141.442 15.3494 141.145 15.3289 140.842 15.3289C136.447 15.3289 132.869 18.9144 132.869 23.3224C132.869 23.4369 132.876 23.5488 132.883 23.6608C129.199 25.6742 126.668 29.8939 126.668 34.117C126.668 40.4079 131.773 45.5263 138.047 45.5263H142.614C143.103 45.5263 143.5 45.1293 143.5 44.6382C143.5 44.147 143.103 43.75 142.614 43.75H138.047C132.75 43.75 128.44 39.4291 128.44 34.117C128.44 30.4276 130.836 26.5979 134.138 25.0108L134.641 24.7701V24.2105C134.641 24.1013 134.648 23.9894 134.654 23.8775L134.662 23.722L134.652 23.5551C134.647 23.4778 134.641 23.4005 134.641 23.3224C134.641 19.895 137.423 17.1053 140.842 17.1053C141.116 17.1053 141.386 17.1292 141.655 17.1648C141.724 17.1737 141.792 17.1852 141.86 17.1967C142.098 17.2358 142.332 17.2873 142.562 17.3539C142.592 17.3628 142.623 17.3682 142.652 17.377C142.906 17.4543 143.153 17.5529 143.395 17.663C143.456 17.6906 143.516 17.7208 143.576 17.751C143.791 17.8566 144.001 17.9739 144.203 18.1053C145.91 19.2146 147.044 21.1366 147.044 23.3224C147.044 23.8135 147.441 24.2105 147.93 24.2105C148.419 24.2105 148.816 23.8135 148.816 23.3224C148.816 20.8764 147.712 18.6871 145.981 17.2198C148.52 13.8892 152.703 11.7763 156.863 11.7763C163.724 11.7763 169.424 17.2252 170.017 24.1102C169.112 24.0462 167.755 24.0134 166.4 24.2212C165.916 24.2949 165.584 24.7479 165.658 25.2328C165.724 25.6724 166.101 25.9877 166.532 25.9877C166.576 25.9877 166.621 25.9842 166.667 25.9771C168.637 25.6787 170.691 25.9584 170.816 25.9753C174.941 26.7613 178.051 30.5706 178.051 34.8436C178.051 39.7542 174.065 43.75 169.167 43.75H165.648C165.159 43.75 164.762 44.147 164.762 44.6382C164.762 45.1293 165.159 45.5263 165.648 45.5263H169.167C175.042 45.5263 179.822 40.7338 179.822 34.8436C179.822 29.9685 176.432 25.5961 171.827 24.3828Z" fill="white" stroke="white"/>
    <path d="M155.06 33.1534C154.978 33.0712 154.881 33.0066 154.772 32.9615C154.557 32.8722 154.314 32.8722 154.099 32.9615C153.99 33.0066 153.893 33.0712 153.811 33.1534L146.76 40.2266C146.416 40.5723 146.416 41.1311 146.76 41.4769C146.932 41.6493 147.158 41.736 147.384 41.736C147.609 41.736 147.835 41.6493 148.007 41.4769L153.554 35.9123V54.1155C153.554 54.6045 153.949 54.9998 154.435 54.9998C154.922 54.9998 155.317 54.6045 155.317 54.1155V35.9123L160.864 41.4769C161.036 41.6493 161.262 41.736 161.487 41.736C161.713 41.736 161.939 41.6493 162.11 41.4769C162.455 41.1311 162.455 40.5723 162.11 40.2266L155.06 33.1534Z" fill="white" stroke="white"/>
</svg>
