<svg width="180" height="40" viewBox="0 0 180 40" fill="none" xmlns="http://www.w3.org/2000/svg">
<path d="M43.1218 27H47.2175C47.7624 26.9941 48.2898 26.9092 48.7995 26.7451C49.3152 26.5811 49.7693 26.3438 50.1618 26.0332C50.5544 25.7285 50.8679 25.3477 51.1023 24.8906C51.3366 24.4336 51.4509 23.9062 51.445 23.3086C51.445 22.9277 51.3864 22.5732 51.2693 22.2451C51.1579 21.917 50.9997 21.6211 50.7946 21.3574C50.6013 21.1172 50.3552 20.8975 50.0564 20.6982C49.7575 20.499 49.447 20.3613 49.1247 20.2852V20.2588C49.4353 20.124 49.6989 19.9805 49.9157 19.8281C50.1384 19.6758 50.3405 19.4883 50.5222 19.2656C50.698 19.0488 50.8357 18.8027 50.9353 18.5273C51.0407 18.252 51.0964 17.9473 51.1023 17.6133C51.1081 17.0156 50.9939 16.5029 50.7595 16.0752C50.5251 15.6475 50.2116 15.2959 49.8191 15.0205C49.4265 14.7451 48.9782 14.543 48.4743 14.4141C47.9704 14.2793 47.4548 14.209 46.9275 14.2031H43.1218V27ZM44.7566 21.0146H47.3493C47.695 21.0264 48.0173 21.085 48.3161 21.1904C48.615 21.2959 48.8757 21.4453 49.0984 21.6387C49.321 21.8379 49.4939 22.0781 49.6169 22.3594C49.7458 22.6406 49.8073 22.9629 49.8015 23.3262C49.8015 23.6836 49.7312 24.0029 49.5905 24.2842C49.4558 24.5654 49.2712 24.8027 49.0368 24.9961C48.8025 25.1895 48.5329 25.3418 48.2282 25.4531C47.9236 25.5586 47.6013 25.6143 47.2614 25.6201H44.7566V21.0146ZM44.7566 19.6611V15.5918H46.9802C47.2966 15.5977 47.6042 15.6387 47.903 15.7148C48.2077 15.791 48.4773 15.9082 48.7116 16.0664C48.9402 16.2305 49.1218 16.4385 49.2566 16.6904C49.3972 16.9424 49.4675 17.2471 49.4675 17.6045C49.4675 17.9385 49.3972 18.2314 49.2566 18.4834C49.1159 18.7354 48.9314 18.9463 48.7029 19.1162C48.4743 19.292 48.2136 19.4268 47.9206 19.5205C47.6277 19.6084 47.3288 19.6553 47.0241 19.6611H44.7566ZM55.7259 18.9053V13.5H54.0999V27H55.7259V20.0918C55.8431 19.9043 55.9749 19.7344 56.1214 19.582C56.2737 19.4238 56.4378 19.2861 56.6136 19.1689C56.8362 19.0166 57.0794 18.8994 57.3431 18.8174C57.6068 18.7354 57.8851 18.6943 58.178 18.6943C58.5355 18.6885 58.8519 18.7383 59.1273 18.8438C59.4027 18.9434 59.6312 19.0957 59.8128 19.3008C59.9827 19.4883 60.1116 19.7256 60.1995 20.0127C60.2874 20.2939 60.3314 20.6221 60.3314 20.9971V27H61.9573V21.0146C61.9573 20.376 61.8782 19.8252 61.72 19.3623C61.5677 18.8936 61.348 18.5068 61.0609 18.2021C60.7737 17.8975 60.4251 17.6748 60.015 17.5342C59.6107 17.3877 59.1595 17.3145 58.6614 17.3145C58.2806 17.3203 57.9202 17.376 57.5804 17.4814C57.2464 17.5869 56.9388 17.7422 56.6575 17.9473C56.4818 18.0703 56.3148 18.2139 56.1566 18.3779C55.9984 18.5361 55.8548 18.7119 55.7259 18.9053ZM71.3095 27H73.0058V26.8594C72.9003 26.5957 72.8183 26.2881 72.7597 25.9365C72.7011 25.5791 72.6718 25.2422 72.6718 24.9258V20.5049C72.6718 19.9717 72.5751 19.5059 72.3818 19.1074C72.1884 18.709 71.9247 18.375 71.5907 18.1055C71.2509 17.8418 70.8495 17.6455 70.3866 17.5166C69.9237 17.3818 69.4228 17.3145 68.8837 17.3145C68.2919 17.3145 67.7616 17.3965 67.2929 17.5605C66.83 17.7246 66.4374 17.9385 66.1152 18.2021C65.787 18.4717 65.5351 18.7734 65.3593 19.1074C65.1894 19.4414 65.1015 19.7812 65.0956 20.127H66.7304C66.7304 19.9277 66.7773 19.7373 66.871 19.5557C66.9706 19.3682 67.1083 19.207 67.2841 19.0723C67.4599 18.9375 67.6737 18.8291 67.9257 18.7471C68.1835 18.665 68.4736 18.624 68.7958 18.624C69.1415 18.624 69.4521 18.668 69.7275 18.7559C70.0087 18.8438 70.246 18.9668 70.4394 19.125C70.6327 19.2891 70.7821 19.4854 70.8876 19.7139C70.9931 19.9424 71.0458 20.2002 71.0458 20.4873V21.2344H69.2704C68.6083 21.2344 68.0077 21.2988 67.4687 21.4277C66.9355 21.5566 66.4784 21.75 66.0976 22.0078C65.7167 22.2715 65.4208 22.5996 65.2099 22.9922C65.0048 23.3848 64.9023 23.8418 64.9023 24.3633C64.9023 24.7617 64.9784 25.1338 65.1308 25.4795C65.289 25.8193 65.5116 26.1123 65.7987 26.3584C66.08 26.6104 66.4228 26.8096 66.8271 26.9561C67.2372 27.1025 67.6943 27.1758 68.1982 27.1758C68.5087 27.1758 68.8017 27.1436 69.0771 27.0791C69.3525 27.0146 69.6132 26.9268 69.8593 26.8154C70.0995 26.7041 70.3193 26.5752 70.5185 26.4287C70.7236 26.2822 70.9081 26.127 71.0722 25.9629C71.0898 26.1621 71.1161 26.3555 71.1513 26.543C71.1923 26.7246 71.245 26.877 71.3095 27ZM68.4355 25.7607C68.1191 25.7607 67.8407 25.7197 67.6005 25.6377C67.3603 25.5557 67.1611 25.4414 67.0028 25.2949C66.8446 25.1543 66.7245 24.9844 66.6425 24.7852C66.5663 24.5859 66.5282 24.3691 66.5282 24.1348C66.5282 23.8887 66.5722 23.6689 66.6601 23.4756C66.7538 23.2822 66.8886 23.1152 67.0644 22.9746C67.3105 22.7754 67.6415 22.6289 68.0575 22.5352C68.4794 22.4355 68.9716 22.3857 69.5341 22.3857H71.0458V24.3105C70.9521 24.498 70.8232 24.6797 70.6591 24.8555C70.495 25.0254 70.3017 25.1777 70.079 25.3125C69.8505 25.4473 69.5986 25.5557 69.3232 25.6377C69.0478 25.7197 68.7519 25.7607 68.4355 25.7607ZM82.2525 17.3145C81.5611 17.3145 80.9429 17.4668 80.398 17.7715C79.8589 18.0703 79.396 18.4805 79.0093 19.002L79.0005 18.7646L78.9302 17.4902H77.3833V27H79.0181V20.9004C79.1236 20.6074 79.2554 20.3438 79.4136 20.1094C79.5777 19.8691 79.7681 19.667 79.9849 19.5029C80.2251 19.3154 80.5064 19.1748 80.8286 19.0811C81.1509 18.9814 81.5112 18.9316 81.9097 18.9316C82.2202 18.9316 82.5161 18.9492 82.7974 18.9844C83.0845 19.0137 83.3862 19.0635 83.7027 19.1338L83.9224 17.543C83.7583 17.4727 83.5122 17.417 83.1841 17.376C82.8618 17.335 82.5513 17.3145 82.2525 17.3145ZM93.2306 27H94.9269V26.8594C94.8214 26.5957 94.7394 26.2881 94.6808 25.9365C94.6222 25.5791 94.5929 25.2422 94.5929 24.9258V20.5049C94.5929 19.9717 94.4962 19.5059 94.3028 19.1074C94.1095 18.709 93.8458 18.375 93.5118 18.1055C93.172 17.8418 92.7706 17.6455 92.3077 17.5166C91.8448 17.3818 91.3439 17.3145 90.8048 17.3145C90.213 17.3145 89.6827 17.3965 89.214 17.5605C88.7511 17.7246 88.3585 17.9385 88.0362 18.2021C87.7081 18.4717 87.4562 18.7734 87.2804 19.1074C87.1105 19.4414 87.0226 19.7812 87.0167 20.127H88.6515C88.6515 19.9277 88.6984 19.7373 88.7921 19.5557C88.8917 19.3682 89.0294 19.207 89.2052 19.0723C89.381 18.9375 89.5948 18.8291 89.8468 18.7471C90.1046 18.665 90.3946 18.624 90.7169 18.624C91.0626 18.624 91.3732 18.668 91.6486 18.7559C91.9298 18.8438 92.1671 18.9668 92.3605 19.125C92.5538 19.2891 92.7032 19.4854 92.8087 19.7139C92.9142 19.9424 92.9669 20.2002 92.9669 20.4873V21.2344H91.1915C90.5294 21.2344 89.9288 21.2988 89.3898 21.4277C88.8566 21.5566 88.3995 21.75 88.0187 22.0078C87.6378 22.2715 87.3419 22.5996 87.131 22.9922C86.9259 23.3848 86.8234 23.8418 86.8234 24.3633C86.8234 24.7617 86.8995 25.1338 87.0519 25.4795C87.2101 25.8193 87.4327 26.1123 87.7198 26.3584C88.0011 26.6104 88.3439 26.8096 88.7482 26.9561C89.1583 27.1025 89.6153 27.1758 90.1193 27.1758C90.4298 27.1758 90.7228 27.1436 90.9982 27.0791C91.2736 27.0146 91.5343 26.9268 91.7804 26.8154C92.0206 26.7041 92.2403 26.5752 92.4396 26.4287C92.6446 26.2822 92.8292 26.127 92.9933 25.9629C93.0109 26.1621 93.0372 26.3555 93.0724 26.543C93.1134 26.7246 93.1661 26.877 93.2306 27ZM90.3566 25.7607C90.0402 25.7607 89.7618 25.7197 89.5216 25.6377C89.2814 25.5557 89.0821 25.4414 88.9239 25.2949C88.7657 25.1543 88.6456 24.9844 88.5636 24.7852C88.4874 24.5859 88.4493 24.3691 88.4493 24.1348C88.4493 23.8887 88.4933 23.6689 88.5812 23.4756C88.6749 23.2822 88.8097 23.1152 88.9855 22.9746C89.2316 22.7754 89.5626 22.6289 89.9786 22.5352C90.4005 22.4355 90.8927 22.3857 91.4552 22.3857H92.9669V24.3105C92.8732 24.498 92.7443 24.6797 92.5802 24.8555C92.4161 25.0254 92.2228 25.1777 92.0001 25.3125C91.7716 25.4473 91.5196 25.5557 91.2443 25.6377C90.9689 25.7197 90.673 25.7607 90.3566 25.7607ZM101.792 15.1875H100.157V17.4902H97.6609V18.7471H100.157V23.915C100.157 24.501 100.233 25.002 100.385 25.418C100.544 25.8281 100.758 26.1621 101.027 26.4199C101.297 26.6836 101.613 26.877 101.976 27C102.345 27.1172 102.741 27.1758 103.163 27.1758C103.415 27.1758 103.667 27.1641 103.919 27.1406C104.176 27.1172 104.42 27.082 104.648 27.0352C104.877 26.9941 105.088 26.9443 105.281 26.8857C105.474 26.8213 105.638 26.748 105.773 26.666L105.545 25.5146C105.445 25.5381 105.316 25.5674 105.158 25.6025C105.006 25.6318 104.842 25.6611 104.666 25.6904C104.484 25.7197 104.3 25.7461 104.112 25.7695C103.925 25.7871 103.743 25.7959 103.567 25.7959C103.327 25.7959 103.098 25.7666 102.882 25.708C102.671 25.6494 102.483 25.5469 102.319 25.4004C102.155 25.2598 102.026 25.0693 101.932 24.8291C101.839 24.5889 101.792 24.2842 101.792 23.915V18.7471H105.413V17.4902H101.792V15.1875ZM115.169 23.6602C115.169 23.8887 115.122 24.0996 115.029 24.293C114.935 24.4805 114.8 24.6416 114.624 24.7764C114.449 24.9111 114.232 25.0166 113.974 25.0928C113.722 25.1689 113.432 25.207 113.104 25.207C112.735 25.207 112.395 25.166 112.084 25.084C111.78 25.002 111.519 24.873 111.302 24.6973C111.079 24.5215 110.907 24.2959 110.784 24.0205C110.66 23.7451 110.593 23.4141 110.581 23.0273H108.156C108.156 23.6895 108.282 24.2666 108.534 24.7588C108.791 25.251 109.14 25.6787 109.579 26.042C110.042 26.4111 110.584 26.6924 111.205 26.8857C111.832 27.0732 112.465 27.167 113.104 27.167C113.754 27.167 114.355 27.0908 114.906 26.9385C115.456 26.7803 115.931 26.5488 116.329 26.2441C116.728 25.9453 117.038 25.5791 117.261 25.1455C117.49 24.7061 117.604 24.2051 117.604 23.6426C117.604 22.9922 117.454 22.418 117.156 21.9199C116.857 21.4219 116.455 20.9854 115.951 20.6104C115.618 20.3818 115.251 20.1797 114.853 20.0039C114.454 19.8281 114.035 19.6787 113.596 19.5557C113.186 19.4443 112.817 19.3242 112.489 19.1953C112.166 19.0664 111.891 18.9229 111.662 18.7646C111.434 18.6123 111.258 18.4395 111.135 18.2461C111.018 18.0527 110.959 17.8359 110.959 17.5957C110.959 17.3672 111.003 17.1562 111.091 16.9629C111.185 16.7637 111.32 16.5908 111.495 16.4443C111.671 16.3037 111.885 16.1953 112.137 16.1191C112.395 16.0371 112.688 15.9961 113.016 15.9961C113.373 15.9961 113.684 16.0459 113.948 16.1455C114.217 16.2393 114.443 16.3711 114.624 16.541C114.8 16.7168 114.932 16.9248 115.02 17.165C115.114 17.4053 115.166 17.6689 115.178 17.9561H117.586C117.586 17.3818 117.475 16.8545 117.252 16.374C117.03 15.8936 116.719 15.4775 116.321 15.126C115.922 14.7803 115.445 14.5107 114.888 14.3174C114.337 14.124 113.728 14.0273 113.06 14.0273C112.415 14.0273 111.818 14.1123 111.267 14.2822C110.716 14.4463 110.239 14.6836 109.834 14.9941C109.43 15.3047 109.114 15.6797 108.885 16.1191C108.657 16.5586 108.542 17.0479 108.542 17.5869C108.542 18.0557 108.627 18.4893 108.797 18.8877C108.973 19.2861 109.231 19.6494 109.571 19.9775C109.91 20.3057 110.347 20.6074 110.88 20.8828C111.419 21.1582 112.043 21.3926 112.752 21.5859C113.209 21.709 113.59 21.8438 113.895 21.9902C114.205 22.1309 114.457 22.2861 114.651 22.4561C114.838 22.6318 114.97 22.8193 115.046 23.0186C115.128 23.2178 115.169 23.4316 115.169 23.6602ZM120.224 17.4902V19.4854H122.931V25.0137H120.224V27H127.976V25.0137H125.4V17.4902H120.224ZM122.755 15.0557C122.755 15.2432 122.787 15.4189 122.851 15.583C122.922 15.7412 123.018 15.876 123.142 15.9873C123.265 16.1045 123.411 16.1953 123.581 16.2598C123.757 16.3242 123.95 16.3564 124.161 16.3564C124.595 16.3564 124.937 16.2363 125.189 15.9961C125.447 15.75 125.576 15.4365 125.576 15.0557C125.576 14.6748 125.447 14.3643 125.189 14.124C124.937 13.8779 124.595 13.7549 124.161 13.7549C123.95 13.7549 123.757 13.7871 123.581 13.8516C123.411 13.916 123.265 14.0039 123.142 14.1152C123.018 14.2324 122.922 14.373 122.851 14.5371C122.787 14.6953 122.755 14.8682 122.755 15.0557ZM132.054 17.4902H129.954V27H132.177V19.8809C132.207 19.8047 132.239 19.7344 132.274 19.6699C132.309 19.6055 132.35 19.5498 132.397 19.5029C132.461 19.4385 132.535 19.3887 132.617 19.3535C132.699 19.3184 132.792 19.3008 132.898 19.3008C132.992 19.3008 133.08 19.3154 133.162 19.3447C133.244 19.3682 133.317 19.4121 133.381 19.4766C133.44 19.541 133.487 19.6318 133.522 19.749C133.557 19.8662 133.575 20.0156 133.575 20.1973V27H135.728V19.9863C135.728 19.916 135.728 19.8604 135.728 19.8193C135.728 19.7783 135.728 19.752 135.728 19.7402C135.757 19.6758 135.792 19.6201 135.834 19.5732C135.875 19.5205 135.921 19.4736 135.974 19.4326C136.039 19.3916 136.106 19.3594 136.176 19.3359C136.252 19.3125 136.337 19.3008 136.431 19.3008C136.519 19.3008 136.604 19.3154 136.686 19.3447C136.774 19.3682 136.85 19.4121 136.915 19.4766C136.979 19.5469 137.029 19.6406 137.064 19.7578C137.105 19.875 137.126 20.0244 137.126 20.2061V27H139.349V20.2148C139.349 19.6875 139.296 19.2422 139.191 18.8789C139.091 18.5098 138.951 18.208 138.769 17.9736C138.582 17.7451 138.362 17.5781 138.11 17.4727C137.864 17.3672 137.597 17.3145 137.31 17.3145C137.082 17.3145 136.871 17.3438 136.677 17.4023C136.484 17.4609 136.311 17.543 136.159 17.6484C136.036 17.7305 135.921 17.8301 135.816 17.9473C135.716 18.0586 135.626 18.1846 135.543 18.3252C135.491 18.1787 135.426 18.0498 135.35 17.9385C135.28 17.8213 135.195 17.7217 135.095 17.6396C134.966 17.5283 134.814 17.4463 134.638 17.3936C134.462 17.3408 134.263 17.3145 134.041 17.3145C133.584 17.3145 133.194 17.4346 132.872 17.6748C132.555 17.9092 132.306 18.2314 132.125 18.6416L132.054 17.4902Z" fill="white"/>
<ellipse cx="17.6135" cy="23.5781" rx="4.40338" ry="4.47118" fill="white"/>
<ellipse cx="4.40338" cy="5.69335" rx="4.40338" ry="4.47118" fill="white"/>
<ellipse cx="6.60507" cy="30.2849" rx="4.40338" ry="4.47118" fill="white"/>
<ellipse cx="24.2186" cy="33.6382" rx="4.40339" ry="4.47119" fill="white"/>
<ellipse cx="22.0169" cy="12.4001" rx="4.40339" ry="4.47118" fill="white"/>
<rect width="2.21295" height="19.2968" rx="1.10648" transform="matrix(0.814088 -0.580742 0.56898 0.822351 4.40338 6.97827)" fill="white"/>
</svg>
